HIERARCHY
ROOT Hips
{
	OFFSET 0.000000 0.000000 0.000000
	CHANNELS 6 Xposition Yposition Zposition Zrotation Yrotation Xrotation 
	JOINT LowerBack
	{
		OFFSET 0.000000 0.000000 0.000000
		CHANNELS 3 Zrotation Yrotation Xrotation
		JOINT Spine
		{
			OFFSET 0.028270 2.035590 -0.193380
			CHANNELS 3 Zrotation Yrotation Xrotation
			JOINT Spine1
			{
				OFFSET 0.056720 2.048850 -0.042750
				CHANNELS 3 Zrotation Yrotation Xrotation
				JOINT Neck
				{
					OFFSET 0.000000 0.000000 0.000000
					CHANNELS 3 Zrotation Yrotation Xrotation
					JOINT Neck1
					{
						OFFSET -0.054170 1.746240 0.172020
						CHANNELS 3 Zrotation Yrotation Xrotation
						JOINT Head
						{
							OFFSET 0.104070 1.761360 -0.123970
							CHANNELS 3 Zrotation Yrotation Xrotation
							End Site
							{
								OFFSET 0.000000 0.000000 0.000000
							}
						}
					}
				}
				JOINT LeftShoulder
				{
					OFFSET 0.000000 0.000000 0.000000
					CHANNELS 3 Zrotation Yrotation Xrotation
					JOINT LeftArm
					{
						OFFSET 3.362410 1.200890 -0.311210
						CHANNELS 3 Zrotation Yrotation Xrotation
						JOINT LeftForeArm
						{
							OFFSET 4.983000 -0.000000 -0.000000
							CHANNELS 3 Zrotation Yrotation Xrotation
							JOINT LeftHand
							{
								OFFSET 3.483560 -0.000000 -0.000000
								CHANNELS 3 Zrotation Yrotation Xrotation
								JOINT LeftFingerBase
								{
									OFFSET 0.000000 0.000000 0.000000
									CHANNELS 3 Zrotation Yrotation Xrotation
									JOINT LeftHandIndex1
									{
										OFFSET 0.715260 -0.000000 -0.000000
										CHANNELS 3 Zrotation Yrotation Xrotation
										End Site
										{
											OFFSET 0.000000 0.000000 0.000000
										}
									}
								}
								JOINT LThumb
								{
									OFFSET 0.000000 0.000000 0.000000
									CHANNELS 3 Zrotation Yrotation Xrotation
									End Site
									{
										OFFSET 0.000000 0.000000 0.000000
									}
								}
							}
						}
					}
				}
				JOINT RightShoulder
				{
					OFFSET 0.000000 0.000000 0.000000
					CHANNELS 3 Zrotation Yrotation Xrotation
					JOINT RightArm
					{
						OFFSET -3.136600 1.374050 -0.404650
						CHANNELS 3 Zrotation Yrotation Xrotation
						JOINT RightForeArm
						{
							OFFSET -5.241900 -0.000000 -0.000000
							CHANNELS 3 Zrotation Yrotation Xrotation
							JOINT RightHand
							{
								OFFSET -3.444170 -0.000000 -0.000000
								CHANNELS 3 Zrotation Yrotation Xrotation
								JOINT RightFingerBase
								{
									OFFSET 0.000000 0.000000 0.000000
									CHANNELS 3 Zrotation Yrotation Xrotation
									JOINT RightHandIndex1
									{
										OFFSET -0.622530 -0.000000 -0.000000
										CHANNELS 3 Zrotation Yrotation Xrotation
										End Site
										{
											OFFSET 0.000000 0.000000 0.000000
										}
									}
								}
								JOINT RThumb
								{
									OFFSET 0.000000 0.000000 0.000000
									CHANNELS 3 Zrotation Yrotation Xrotation
									End Site
									{
										OFFSET 0.000000 0.000000 0.000000
									}
								}
							}
						}
					}
				}
			}
		}
	}
}
}
MOTION
Frames: 9
Frame Time: 0.008333
16.357360 16.594600 1.454989 63.710818 -88.942332 -16.024517 2.482935 -1.756401 -3.367099 -0.246172 -2.059046 -3.625282 -5.937793 -2.206605 1.198431 8.896210 -9.375831 -9.492605 -2.538864 -0.156317 -0.836372 0.000000 0.000000 0.000000 -0.862870 5.795545 2.791680 -54.414543 15.281266 33.643809 -2.606807 -47.009576 0.010821 -6.429870 -5.554494 0.313048 -0.047913 0.045747 -0.000000 0.000000 0.000000 0.000000 0.000000 0.000000 0.000000 13.103380 -7.431028 2.842568 64.871566 -3.474727 14.919167 3.152808 28.715110 0.017641 1.457807 7.431899 0.090190 0.102792 -0.125842 0.000000 0.000000 0.000000 0.000000 0.000000 0.000000 0.000000 
16.337893 16.530111 1.456981 64.563310 -88.750449 -16.192220 2.432916 -1.782530 -3.477262 -0.258723 -2.086057 -3.658088 -5.930729 -2.236240 1.184259 8.970508 -9.462985 -9.603906 -2.547223 -0.155171 -0.877345 0.000000 0.000000 0.000000 -0.980278 5.843193 2.822179 -54.601902 15.496948 33.398045 -2.609833 -46.714405 0.010998 -6.341036 -5.589949 0.310747 -0.048191 0.047492 -0.000000 0.000000 0.000000 0.000000 0.000000 0.000000 0.000000 13.291818 -7.523120 2.866082 64.834801 -3.763929 14.825556 3.120839 28.949685 0.017589 1.334300 7.506462 0.082892 0.102894 -0.128791 0.000000 0.000000 0.000000 0.000000 0.000000 0.000000 0.000000 
16.318657 16.458786 1.458359 65.363016 -88.540495 -16.295095 2.373763 -1.810279 -3.598234 -0.273841 -2.114837 -3.693156 -5.925252 -2.267788 1.170154 9.046517 -9.547144 -9.719154 -2.557705 -0.154098 -0.919971 0.000000 0.000000 0.000000 -1.114365 5.889840 2.856406 -54.763984 15.616342 33.198650 -2.610964 -46.444615 0.011250 -6.219625 -5.641497 0.307651 -0.048799 0.049743 -0.000000 0.000000 0.000000 0.000000 0.000000 0.000000 0.000000 13.490285 -7.612438 2.890238 64.820383 -3.967781 14.731715 3.086405 29.171233 0.017521 1.179375 7.598703 0.073394 0.103178 -0.132167 0.000000 0.000000 0.000000 0.000000 0.000000 0.000000 0.000000 
16.299834 16.380299 1.459125 66.112154 -88.310173 -16.339261 2.304231 -1.840437 -3.728360 -0.291872 -2.146036 -3.730881 -5.921538 -2.301963 1.153041 9.121656 -9.620232 -9.834437 -2.570747 -0.153195 -0.963083 0.000000 0.000000 0.000000 -1.263346 5.922206 2.894249 -54.903402 15.665447 33.027400 -2.610243 -46.211400 0.011556 -6.074633 -5.702508 0.303757 -0.049627 0.052431 -0.000000 0.000000 0.000000 0.000000 0.000000 0.000000 0.000000 13.695738 -7.690284 2.915805 64.833720 -4.105150 14.611282 3.049812 29.383966 0.017428 1.004126 7.703229 0.062399 0.103541 -0.135960 0.000000 0.000000 0.000000 0.000000 0.000000 0.000000 0.000000 
16.281189 16.294475 1.459331 66.798282 -88.058610 -16.317380 2.224380 -1.873761 -3.864911 -0.312455 -2.180239 -3.769703 -5.918239 -2.339242 1.135986 9.194789 -9.691688 -9.952264 -2.585030 -0.152318 -1.007376 0.000000 0.000000 0.000000 -1.421474 5.949692 2.935186 -55.025894 15.635516 32.885369 -2.608229 -46.008363 0.011904 -5.911336 -5.769197 0.299066 -0.050657 0.055541 -0.000000 0.000000 0.000000 0.000000 0.000000 0.000000 0.000000 13.903841 -7.766887 2.942086 64.873780 -4.167140 14.480146 3.011448 29.582026 0.017305 0.810272 7.818420 0.049803 0.103996 -0.140092 0.000000 0.000000 0.000000 0.000000 0.000000 0.000000 0.000000 
16.262967 16.201211 1.459020 67.415469 -87.785300 -16.229125 2.134570 -1.910077 -4.005829 -0.335914 -2.217234 -3.811279 -5.916556 -2.379588 1.111226 9.262830 -9.736740 -10.061840 -2.602687 -0.151811 -1.049652 0.000000 0.000000 0.000000 -1.588389 5.940683 2.979578 -55.137689 15.576515 32.732279 -2.605137 -45.849327 0.012267 -5.744354 -5.833779 0.293877 -0.051701 0.058958 -0.000000 0.000000 0.000000 0.000000 0.000000 0.000000 0.000000 14.113867 -7.815683 2.970594 64.947377 -4.197121 14.284786 2.971832 29.782321 0.017156 0.625318 7.934068 0.037507 0.104250 -0.144566 0.000000 0.000000 0.000000 0.000000 0.000000 0.000000 0.000000 
16.245017 16.100447 1.458340 67.949722 -87.491782 -16.063739 2.037025 -1.949759 -4.148060 -0.360935 -2.257263 -3.851908 -5.913493 -2.422941 1.089257 9.327504 -9.786596 -10.173320 -2.620363 -0.151240 -1.092830 0.000000 0.000000 0.000000 -1.755190 5.932263 3.026135 -55.246794 15.437789 32.593067 -2.601996 -45.705656 0.012658 -5.571990 -5.897997 0.288189 -0.052866 0.062740 -0.000000 0.000000 0.000000 0.000000 0.000000 0.000000 0.000000 14.321782 -7.870577 2.998763 65.042220 -4.152954 14.094092 2.931406 29.967336 0.016978 0.436755 8.053925 0.024511 0.104493 -0.149232 0.000000 0.000000 0.000000 0.000000 0.000000 0.000000 0.000000 
16.227265 15.992314 1.457404 68.390486 -87.180915 -15.816252 1.934698 -1.991641 -4.290225 -0.387146 -2.299283 -3.892699 -5.909943 -2.468358 1.065043 9.387423 -9.823304 -10.278258 -2.639723 -0.150879 -1.134346 0.000000 0.000000 0.000000 -1.921272 5.903700 3.074794 -55.359893 15.252053 32.437235 -2.599144 -45.581149 0.013057 -5.405216 -5.957346 0.282402 -0.054021 0.066791 -0.000000 0.000000 0.000000 0.000000 0.000000 0.000000 0.000000 14.528287 -7.912315 3.027232 65.159085 -4.065496 13.874581 2.890776 30.149347 0.016778 0.265270 8.170813 0.012415 0.104512 -0.154067 0.000000 0.000000 0.000000 0.000000 0.000000 0.000000 0.000000 
16.209765 15.876872 1.456372 68.737292 -86.857086 -15.487680 1.831081 -2.034518 -4.431557 -0.413734 -2.342233 -3.933269 -5.905720 -2.514740 1.039388 9.443633 -9.847126 -10.375209 -2.660838 -0.150761 -1.173703 0.000000 0.000000 0.000000 -2.084721 5.856701 3.124875 -55.483073 15.020278 32.255633 -2.597024 -45.466193 0.013461 -5.248398 -6.011557 0.276817 -0.055131 0.071080 -0.000000 0.000000 0.000000 0.000000 0.000000 0.000000 0.000000 14.734918 -7.941366 3.055406 65.291137 -3.937560 13.631765 2.850369 30.328489 0.016563 0.115630 8.281794 0.001518 0.104272 -0.159005 0.000000 0.000000 0.000000 0.000000 0.000000 0.000000 0.000000 
